<svg viewBox="0 0 2048 1329.1012" xmlns="http://www.w3.org/2000/svg"><path d="M2021.376 368.687h-26.624c-.174-.01-.377-.018-.582-.018-4.033 0-7.474 2.533-8.818 6.096l-.02.065c0 1.844-1.64 3.892-2.254 5.735l-40.96 117.35-14.95 43.008-2.048-4.096-45.056-124.518-13.517-36.865c-1.408-4.345-5.42-7.43-10.152-7.43-.392 0-.78.02-1.16.06l.047-.003h-25.19c-4.506 0-6.554 2.458-5.325 6.963.67 2.816 1.444 5.208 2.377 7.517l-.125-.35q38.5 94.823 77.004 189.646c1.256 2.577 1.99 5.606 1.99 8.806s-.734 6.23-2.043 8.928l.054-.122c-4.3 9.216-7.578 19.046-11.878 28.262-3.823 9.147-11.927 15.827-21.737 17.587l-.177.025c-2.637.225-5.707.353-8.806.353s-6.17-.128-9.204-.38l.398.027c-3.276 0-6.553 0-9.83-1.23s-7.167 1.435-7.372 6.35 0 8.602 0 13.107c-.047.373-.074.805-.074 1.243 0 5.578 4.373 10.136 9.878 10.43h.026c6.6 1.683 14.177 2.648 21.98 2.648 3.004 0 5.976-.143 8.91-.423l-.375.03c15.543-1.177 29.078-8.888 38.003-20.362l.09-.12c6.92-8.76 12.72-18.844 16.932-29.72l.27-.794 93.184-236.954c.756-1.92 1.396-4.19 1.81-6.54l.033-.22c-.214-2.307-2.14-4.1-4.487-4.1-.078 0-.156 0-.234.005h.01zm-437.043 38.707c-9.338-20.83-27.202-36.413-49.03-42.472l-.532-.126c-7.416-2.09-15.934-3.29-24.732-3.29-16.858 0-32.687 4.41-46.396 12.137l.473-.245c-8.192 4.3-15.77 10.035-23.757 15.155v-2.048c0-4.096-1.23-7.987-2.048-12.083-.612-3.624-3.726-6.35-7.477-6.35-.035 0-.07 0-.106.002h-20.475c-.06-.002-.133-.003-.205-.003-3.62 0-6.554 2.935-6.554 6.555V655.203c0 5.94 2.458 8.397 8.397 8.397h21.71c5.938 0 8.19-2.458 8.396-8.397v-96.665l1.843 1.23c16.21 14.292 37.63 23.016 61.086 23.016 1.35 0 2.69-.03 4.025-.086l-.19.006c22.3-.03 42.452-9.194 56.923-23.95l.013-.012c12.49-12.528 21.71-28.323 26.266-45.993l.153-.7c3.243-12.39 5.105-26.613 5.105-41.27 0-5.805-.292-11.542-.862-17.196l.058.713c-1.134-17.236-5.47-33.202-12.42-47.676l.337.777zm-33.383 102.4c-2.544 8.767-6.696 16.366-12.158 22.823l.075-.09c-8.375 9.57-20.407 15.762-33.892 16.38l-.105.004c-1.83.138-3.964.216-6.115.216-20.524 0-39.39-7.104-54.27-18.987l.175.134c-.886-.89-1.434-2.115-1.434-3.47v-.013-55.498V416.2c-.01-.117-.017-.252-.017-.39 0-1.665.903-3.12 2.247-3.9l.022-.01c14.99-10.894 33.762-17.427 54.06-17.427.65 0 1.3.007 1.946.02l-.097-.002c.398-.01.868-.018 1.34-.018 21.697 0 40.068 14.236 46.284 33.876l.094.344c3.32 9.206 5.458 19.84 5.932 30.907l.008.222c.322 3.683.505 7.968.505 12.296 0 13.093-1.678 25.793-4.832 37.9l.232-1.043zm244.532-100.147c-2.153-15.918-11.47-29.29-24.543-36.94l-.24-.13c-10.377-5.642-22.627-9.208-35.65-9.822l-.19-.007c-4.628-.38-10.02-.595-15.46-.595-17.2 0-33.894 2.16-49.83 6.22l1.393-.3c-9.803 2.667-17.71 5.324-25.424 8.36l1.666-.577c-3.828 1.178-6.562 4.682-6.562 8.826 0 .137.003.274.01.41l-.002-.02v14.337s3.072 7.78 8.602 5.938c16.096-5.364 34.74-9.02 54.052-10.21l.63-.03c2.58-.223 5.587-.35 8.622-.35 7.606 0 15.025.8 22.178 2.317l-.695-.124c12.23 2.146 21.64 11.97 23.13 24.237l.013.135c.972 8.52 1.527 18.393 1.527 28.397 0 4.418-.108 8.81-.322 13.177l.024-.615h-1.638c-11.89-3.07-25.883-5.326-40.226-6.31l-.734-.04c-3.07-.293-6.638-.46-10.244-.46-12.362 0-24.266 1.967-35.414 5.604l.807-.228c-17.143 5.294-30.888 17.17-38.54 32.603l-.167.37c-3.872 8.27-6.132 17.96-6.132 28.175 0 4.523.443 8.942 1.288 13.217l-.07-.43c2.505 19.068 14.597 34.83 31.2 42.46l.338.138c9.182 4.12 19.9 6.52 31.18 6.52 5.198 0 10.277-.51 15.19-1.48l-.495.08c20.22-3.36 38.032-11.858 52.596-24.097l-.166.136 2.253-1.64c0 5.12 1.434 9.83 2.253 14.542.218 3.713 3.23 6.655 6.953 6.758H1790.363c3.347-.11 6.033-2.796 6.143-6.134v-.01-3.686-139.06c.038-1.113.06-2.422.06-3.736 0-5.616-.395-11.14-1.156-16.546l.072.622zm-39.117 122.88c-13.578 10.22-30.195 17.122-48.278 19.208l-.464.044c-1.936.282-4.17.444-6.442.444-5.62 0-11.008-.988-16-2.8l.325.103c-8.018-2.962-14.088-9.504-16.34-17.633l-.044-.184c-1.176-3.738-1.853-8.036-1.853-12.493s.678-8.755 1.936-12.797l-.082.305c3.206-10.145 11.33-17.86 21.5-20.435l.21-.045c6.27-1.867 13.477-2.94 20.934-2.94 3.015 0 5.99.175 8.912.516l-.355-.033c11.675 1.024 23.348 3.072 35.022 4.71h2.458V528.227c.055.26.086.555.086.858 0 1.404-.673 2.65-1.714 3.436l-.01.01zM283.853 585.98c.33.048.712.076 1.1.076 4.41 0 7.987-3.576 7.987-7.987 0-.39-.028-.77-.08-1.144l.004.043V469.243q0-53.862 26.83-53.862t23.96 53.862V576.97c0 2.047 2.05 4.914 5.94 9.01h40.96c3.89 0 5.94-3.072 5.94-9.01V469.243c-.057-1.66-.088-3.61-.088-5.566 0-11.794 1.15-23.32 3.344-34.47l-.184 1.124c4.503-8.87 13.522-14.862 23.95-14.95h.012c1.08-.202 2.324-.318 3.594-.318 10.557 0 19.248 7.988 20.36 18.25l.008.09v143.36q0 3.072 9.01 9.01h38.913c3.89 0 5.94-3.07 5.94-9.01v-128.41c.313-3.538.49-7.654.49-11.812 0-18.365-3.487-35.915-9.837-52.024l.334.962c-10.48-12.56-26.137-20.493-43.648-20.493-.423 0-.845.005-1.266.014h.063c-1.573-.173-3.395-.27-5.24-.27-22.816 0-42.117 15.042-48.528 35.75l-.096.36c-8.075-20.754-27.668-35.3-50.725-35.84h-.064c-.92-.056-1.992-.088-3.074-.088-23.32 0-43.177 14.82-50.67 35.553l-.118.375v-24.37c0-5.94-2.048-9.012-5.94-9.012h-37.273c-4.095 0-5.938 3.072-5.938 9.01v200.5c0 2.048 2.048 4.915 5.94 9.01zm296.14-125.747c-24.366 11.072-41.005 35.198-41.005 63.21 0 .89.017 1.777.05 2.658l-.004-.126c-.34 2.253-.535 4.853-.535 7.498 0 29.182 23.656 52.838 52.837 52.838 2.645 0 5.245-.194 7.786-.57l-.288.035h.457c24.556 0 46.708-10.29 62.38-26.792l.036-.037c3.168 3.535 6.135 7.413 8.79 11.513l.22.364c4 5.973 8.978 10.953 14.76 14.83l.192.12c.276.022.597.035.922.035 3.116 0 5.957-1.18 8.1-3.118l-.01.01c6.207-3.552 11.575-7.484 16.454-11.942l-.07.063q10.445-9.01 13.517-11.878c1.756-1.4 2.872-3.54 2.872-5.94s-1.116-4.538-2.856-5.926l-.016-.013c-8.413-9.443-14.154-21.436-15.937-34.684l-.037-.337v-63.693q0-50.79-18.022-65.74C676.88 369.84 658.432 362 638.152 362c-1.583 0-3.154.048-4.713.142l.213-.01q-77.824 0-89.702 59.802c0 5.94 2.05 9.01 5.94 9.01l38.912 5.94c3.89-3.89 5.94-6.963 5.94-9.01 2.868-13.88 14.99-24.162 29.512-24.162 1.22 0 2.42.072 3.603.213l-.143-.014c11.878 0 18.842 4.097 20.48 11.88 4.56 6.51 7.286 14.595 7.286 23.317 0 1.09-.043 2.173-.126 3.242l.01-.143v5.94q-66.356 9.01-75.367 12.082zm75.367 27.033c.14 1.68.218 3.638.218 5.614 0 12.985-3.423 25.17-9.416 35.702l.187-.357c-4.345 10.652-14.623 18.023-26.622 18.023h-.22.012q-25.6.818-25.6-26.215 0-40.96 59.802-40.96zm-449.33 59.802c-8.043-9.532-13.44-21.535-14.924-34.722l-.027-.298v-63.693q0-50.79-14.95-65.74c-14.395-12.825-33.477-20.66-54.388-20.66-1.905 0-3.795.065-5.667.193l.253-.014q-77.824 0-89.702 59.802c0 5.94 2.048 9.01 5.94 9.01l38.91 3.073c.198.025.425.04.656.04 2.94 0 5.325-2.385 5.325-5.326 0-.23-.015-.458-.043-.68l.003.025c2.634-14.162 14.893-24.742 29.624-24.742 1.11 0 2.202.06 3.28.176l-.134-.012c11.878 0 18.842 4.096 20.48 11.878 3.925 6.172 6.255 13.69 6.255 21.755 0 1.79-.114 3.55-.336 5.28l.02-.205v5.94q-65.74 9.01-74.75 11.877c-24.368 11.072-41.007 35.198-41.007 63.21 0 .89.017 1.777.05 2.658l-.004-.127c-.34 2.253-.535 4.853-.535 7.498 0 29.182 23.657 52.838 52.838 52.838 2.645 0 5.245-.194 7.786-.57l-.288.035c25.558-.257 48.69-10.435 65.772-26.86l-.03.03c6.354 10.092 13.106 18.863 20.588 26.948l-.11-.12c.277.023.598.036.923.036 3.116 0 5.957-1.18 8.1-3.117l-.01.01c11.22-7.354 21-15.246 29.935-23.996l-.034.034c1.672-1.4 2.728-3.488 2.728-5.823 0-2.24-.972-4.252-2.517-5.64l-.008-.005zm-68.814-59.802c.115 1.82.18 3.947.18 6.09 0 12.51-2.243 24.497-6.35 35.58l.23-.71c-6.008 10.598-17.09 17.706-29.856 18.022h-.044q-23.962 0-23.962-26.828 0-40.96 59.802-40.96zM1238.22 364.59c-24.874.262-45.944 16.266-53.738 38.51l-.123.403v-30.106c0-3.89-3.073-5.94-9.012-5.94h-35.84c-.197-.025-.424-.04-.655-.04-2.94 0-5.325 2.385-5.325 5.326 0 .23.015.458.043.68l-.002-.025v203.366c0 2.048 2.048 4.915 5.94 9.01h38.91c.332.05.713.077 1.1.077 4.412 0 7.988-3.575 7.988-7.986 0-.388-.028-.77-.08-1.143l.004.044v-107.52c-.118-1.746-.185-3.785-.185-5.84 0-11.892 2.247-23.26 6.34-33.7l-.216.628c2.57-10.432 11.845-18.046 22.898-18.046.374 0 .745.01 1.114.026l-.052-.002q23.962 0 23.962 56.934V576.97c0 2.047 2.048 4.914 5.94 9.01h38.91c.332.048.713.076 1.1.076 4.412 0 7.988-3.576 7.988-7.987 0-.39-.028-.77-.08-1.144l.004.043V450.606c.303-3.073.476-6.642.476-10.252 0-18.71-4.647-36.337-12.85-51.787l.29.6c-7.692-14.83-22.928-24.787-40.49-24.787-1.535 0-3.053.077-4.55.226l.19-.015zM801.383 645.78c-76.085 31.624-164.434 50.17-257.065 50.586h-.164c-2.286.03-4.987.047-7.692.047-119.466 0-231.4-32.26-327.56-88.54l3.068 1.66-9.01-3.072q-9.012 3.073 0 11.88c86.847 78.05 202.31 125.784 328.923 125.784 2.156 0 4.308-.014 6.456-.04l-.326.002q163.84 0 272.18-80.69c3.383-2.927 5.607-7.115 5.935-11.825l.003-.053c.205-7.782-4.71-9.83-14.746-5.734zm212.378-281.19c-.918-.038-1.995-.06-3.078-.06-25.55 0-48.242 12.25-62.52 31.196l-.143.2c-15.036 20.604-24.057 46.43-24.057 74.365 0 1.72.034 3.433.102 5.137l-.008-.244c-.044 1.273-.068 2.77-.068 4.27 0 28.607 8.994 55.113 24.31 76.843l-.28-.422c14.052 20.063 37.06 33.018 63.097 33.018.93 0 1.855-.017 2.776-.05l-.133.005c.32.005.695.007 1.072.007 25.712 0 48.572-12.212 63.096-31.152l.14-.19c15.89-20.5 25.47-46.584 25.47-74.907 0-1.53-.027-3.053-.082-4.57l.006.22c.04-1.236.064-2.69.064-4.15 0-28.645-8.993-55.19-24.31-76.967l.284.426c-14.096-20.064-37.137-33.015-63.203-33.015-.892 0-1.78.014-2.667.044l.13-.003zm0 182.478q-29.9 0-29.9-77.824 0-62.874 29.9-62.874c1.08-.202 2.324-.318 3.594-.318 10.557 0 19.248 7.988 20.36 18.25l.008.09c4.326 14.78 6.815 31.76 6.815 49.32 0 1.597-.02 3.19-.062 4.777l.005-.236q0 68.813-30.72 68.813zm-116.53-18.023c-19.003-9.528-41.405-15.106-65.11-15.106-2.382 0-4.753.055-7.11.167l.334-.013 65.74-95.642c4.507-4.856 7.7-10.99 8.977-17.8l.036-.223v-23.963c0-5.94-2.048-9.01-5.94-9.01H765.544c-.33-.05-.712-.077-1.1-.077-4.41 0-7.987 3.576-7.987 7.987 0 .388.028.77.08 1.143l-.004-.043V403.5c-.048.332-.076.713-.076 1.1 0 4.412 3.576 7.988 7.987 7.988.388 0 .77-.028 1.143-.08l-.043.004h65.74L753.46 523.31c-1.993 5.264-3.147 11.35-3.147 17.708 0 .975.027 1.943.08 2.904l-.005-.133v26.828c-.048.33-.076.712-.076 1.1 0 4.41 3.576 7.987 7.987 7.987.387 0 .77-.028 1.142-.08l-.043.004c19.813-11.29 43.535-17.947 68.812-17.947s49 6.656 69.51 18.31l-.697-.364c.33.047.712.075 1.1.075 4.41 0 7.987-3.576 7.987-7.987 0-.388-.028-.77-.08-1.143l.004.043v-29.49c.016-.23.025-.494.025-.762 0-5.438-3.717-10.007-8.75-11.305l-.08-.017zm-70.452 64.922c-26.968.14-52.226 7.34-74.055 19.845l.737-.39q-12.083 12.084 3.072 11.88 74.752-9.012 86.835 3.07 5.94 9.012-20.48 83.764c.795 2.407 3.024 4.114 5.652 4.114 1.254 0 2.42-.39 3.378-1.054l-.02.013c18.75-15.558 32.47-36.588 38.732-60.628l.18-.813q11.878-40.96 3.072-49.358-3.686-12.493-47.104-10.445z"/></svg>